<svg width="2400" height="257" viewBox="0 0 2400 257" fill="none" xmlns="http://www.w3.org/2000/svg">
  <defs>
    <linearGradient id="logoGradient" x1="0%" y1="0%" x2="100%" y2="0%">
      <stop offset="0%" style="stop-color:#3B82F6;stop-opacity:1" />
      <stop offset="50%" style="stop-color:#06B6D4;stop-opacity:1" />
      <stop offset="100%" style="stop-color:#10B981;stop-opacity:1" />
    </linearGradient>
    <linearGradient id="accentGradient" x1="0%" y1="0%" x2="100%" y2="0%">
      <stop offset="0%" style="stop-color:#8B5CF6;stop-opacity:1" />
      <stop offset="100%" style="stop-color:#EC4899;stop-opacity:1" />
    </linearGradient>
  </defs>
  
  <!-- WeCode Text -->
  <g fill="url(#logoGradient)">
    <!-- W -->
    <path d="M50 50 L90 200 L120 100 L150 200 L190 50 L170 50 L150 150 L130 80 L110 150 L90 50 Z"/>
    
    <!-- e -->
    <path d="M220 120 Q220 100 240 100 Q280 100 280 120 L280 140 L240 140 Q220 140 220 160 Q220 180 240 180 Q260 180 280 160 L300 180 Q300 200 240 200 Q200 200 200 160 Q200 120 220 120 Z M240 120 L260 120 L260 130 L240 130 Z"/>
    
    <!-- C -->
    <path d="M350 200 Q310 200 310 150 Q310 100 350 100 Q380 100 400 120 L380 140 Q370 120 350 120 Q330 120 330 150 Q330 180 350 180 Q370 180 380 160 L400 180 Q380 200 350 200 Z"/>
    
    <!-- o -->
    <path d="M430 120 Q430 100 450 100 Q490 100 490 120 Q490 140 490 160 Q490 180 450 180 Q430 180 430 160 Q430 140 430 120 Z M450 120 Q440 120 440 150 Q440 170 450 170 Q470 170 470 150 Q470 120 450 120 Z"/>
    
    <!-- d -->
    <path d="M520 50 L540 50 L540 120 Q540 100 560 100 Q600 100 600 120 Q600 140 600 160 Q600 180 560 180 Q540 180 540 160 L540 200 L520 200 Z M560 120 Q550 120 550 150 Q550 170 560 170 Q580 170 580 150 Q580 120 560 120 Z"/>
    
    <!-- e -->
    <path d="M630 120 Q630 100 650 100 Q690 100 690 120 L690 140 L650 140 Q630 140 630 160 Q630 180 650 180 Q670 180 690 160 L710 180 Q710 200 650 200 Q610 200 610 160 Q610 120 630 120 Z M650 120 L670 120 L670 130 L650 130 Z"/>
  </g>
  
  <!-- Africa Text -->
  <g fill="white">
    <!-- A -->
    <path d="M800 200 L780 200 L785 180 L825 180 L830 200 L850 200 L820 50 L790 50 Z M805 90 L815 160 L795 160 Z"/>
    
    <!-- f -->
    <path d="M880 50 L900 50 L900 100 L930 100 L930 120 L900 120 L900 200 L880 200 L880 120 L860 120 L860 100 L880 100 Z"/>
    
    <!-- r -->
    <path d="M960 100 L980 100 L980 120 Q980 100 1000 100 Q1020 100 1030 110 L1020 130 Q1010 120 1000 120 Q990 120 990 130 L990 200 L970 200 L970 100 Z"/>
    
    <!-- i -->
    <path d="M1060 60 L1080 60 L1080 80 L1060 80 Z M1060 100 L1080 100 L1080 200 L1060 200 Z"/>
    
    <!-- c -->
    <path d="M1130 200 Q1090 200 1090 150 Q1090 100 1130 100 Q1160 100 1180 120 L1160 140 Q1150 120 1130 120 Q1110 120 1110 150 Q1110 180 1130 180 Q1150 180 1160 160 L1180 180 Q1160 200 1130 200 Z"/>
    
    <!-- a -->
    <path d="M1210 120 Q1210 100 1230 100 Q1270 100 1270 120 L1270 200 L1250 200 L1250 180 Q1250 200 1230 200 Q1210 200 1210 180 Q1210 160 1230 160 L1250 160 L1250 140 Q1250 120 1230 120 Q1220 120 1210 130 L1200 110 Q1210 100 1230 100 Z M1230 180 Q1240 180 1250 170 L1250 170 L1230 170 Q1220 170 1220 180 Q1220 190 1230 180 Z"/>
  </g>
  
  <!-- Accent Elements -->
  <g fill="url(#accentGradient)">
    <!-- Code brackets -->
    <path d="M1350 80 L1330 80 L1320 120 L1330 160 L1350 160 L1340 160 L1335 120 L1340 80 Z"/>
    <path d="M1380 80 L1400 80 L1405 120 L1400 160 L1380 160 L1390 160 L1395 120 L1390 80 Z"/>
    
    <!-- Geometric accent -->
    <circle cx="1450" cy="120" r="15" opacity="0.8"/>
    <rect x="1480" y="105" width="30" height="30" rx="5" opacity="0.6"/>
  </g>
  
  <!-- Tech Elements -->
  <g stroke="url(#logoGradient)" stroke-width="2" fill="none" opacity="0.4">
    <!-- Circuit lines -->
    <path d="M1550 100 L1600 100 L1600 140 L1650 140"/>
    <path d="M1550 140 L1580 140 L1580 100 L1630 100"/>
    <circle cx="1580" cy="120" r="3" fill="url(#logoGradient)"/>
    <circle cx="1620" cy="120" r="3" fill="url(#logoGradient)"/>
  </g>
</svg>